<?xml version="1.0" encoding="UTF-8"?>
<!DOCTYPE svg PUBLIC "-//W3C//DTD SVG 1.1//EN" "http://www.w3.org/Graphics/SVG/1.1/DTD/svg11.dtd">
<svg xmlns="http://www.w3.org/2000/svg" version="1.1" width="1846px" height="1374px" style="shape-rendering:geometricPrecision; text-rendering:geometricPrecision; image-rendering:optimizeQuality; fill-rule:evenodd; clip-rule:evenodd" xmlns:xlink="http://www.w3.org/1999/xlink">
<g><path style="opacity:0.999" fill="#e82c2e" d="M 536.5,968.5 C 536.414,967.504 536.748,966.671 537.5,966C 621.898,906.78 670.731,825.613 684,722.5C 685.04,713.528 685.54,704.528 685.5,695.5C 685.81,684.419 685.477,673.419 684.5,662.5C 674.222,553.562 624.555,467.896 535.5,405.5C 622.085,223.095 761.419,100.262 953.5,37C 1104.98,-7.97785 1254.65,-2.64452 1402.5,53C 1555.25,114.434 1671.75,216.934 1752,360.5C 1834,515.87 1855,679.203 1815,850.5C 1767.78,1029.92 1665.95,1168.75 1509.5,1267C 1355.79,1357.95 1191.12,1386.29 1015.5,1352C 831.112,1310.3 686.946,1211.14 583,1054.5C 565.232,1027.19 549.732,998.52 536.5,968.5 Z"/></g>
<g><path style="opacity:0.999" fill="#0f2538" d="M 535.5,405.5 C 624.555,467.896 674.222,553.562 684.5,662.5C 670.262,609.427 636.595,575.26 583.5,560C 537.295,549.057 495.295,557.724 457.5,586C 436.024,604.434 421.191,627.268 413,654.5C 407.554,631.103 396.054,611.269 378.5,595C 341.99,562.198 299.323,549.865 250.5,558C 192.178,571.989 156.344,608.155 143,666.5C 137.656,736.096 167.156,783.929 231.5,810C 279.578,825.312 324.245,818.645 365.5,790C 388.303,772.572 403.803,750.072 412,722.5C 428.196,768.359 459.696,798.193 506.5,812C 555.302,825.203 599.635,816.537 639.5,786C 666.949,761.935 682.282,731.768 685.5,695.5C 685.54,704.528 685.04,713.528 684,722.5C 670.731,825.613 621.898,906.78 537.5,966C 536.748,966.671 536.414,967.504 536.5,968.5C 440.309,1028.69 338.309,1040.52 230.5,1004C 122.861,961.029 53.028,883.862 21,772.5C -4.23246,665.849 15.4342,568.516 80,480.5C 148.515,395.245 237.848,351.245 348,348.5C 416.326,349.115 478.826,368.115 535.5,405.5 Z"/></g>
<g><path style="opacity:1" fill="#fefdfe" d="M 684.5,662.5 C 685.477,673.419 685.81,684.419 685.5,695.5C 682.282,731.768 666.949,761.935 639.5,786C 599.635,816.537 555.302,825.203 506.5,812C 459.696,798.193 428.196,768.359 412,722.5C 403.803,750.072 388.303,772.572 365.5,790C 324.245,818.645 279.578,825.312 231.5,810C 167.156,783.929 137.656,736.096 143,666.5C 156.344,608.155 192.178,571.989 250.5,558C 299.323,549.865 341.99,562.198 378.5,595C 396.054,611.269 407.554,631.103 413,654.5C 421.191,627.268 436.024,604.434 457.5,586C 495.295,557.724 537.295,549.057 583.5,560C 636.595,575.26 670.262,609.427 684.5,662.5 Z"/></g>
<g><path style="opacity:1" fill="#fefefe" d="M 1593.5,625.5 C 1593.5,628.167 1593.5,630.833 1593.5,633.5C 1567.17,633.5 1540.83,633.5 1514.5,633.5C 1511.4,617.086 1501.4,609.086 1484.5,609.5C 1472.24,609.372 1463.41,614.705 1458,625.5C 1457.22,636.092 1461.72,643.592 1471.5,648C 1493.6,657.255 1515.93,665.922 1538.5,674C 1552.78,680.136 1566.11,687.803 1578.5,697C 1595.43,713.885 1600.93,734.052 1595,757.5C 1588.21,781.624 1573.05,798.124 1549.5,807C 1521.96,816.721 1493.63,820.055 1464.5,817C 1441.95,815.373 1421.28,808.373 1402.5,796C 1380.73,779.28 1370.73,757.114 1372.5,729.5C 1399.17,729.5 1425.83,729.5 1452.5,729.5C 1454.63,754.799 1468.3,765.965 1493.5,763C 1512.76,758.293 1519.26,746.793 1513,728.5C 1508.29,723.558 1502.79,719.725 1496.5,717C 1475.97,709.269 1455.31,701.936 1434.5,695C 1416.45,688.074 1400.95,677.574 1388,663.5C 1369.98,630.722 1375.82,602.889 1405.5,580C 1442.22,556.38 1481.88,549.713 1524.5,560C 1546.19,564.59 1564.69,574.756 1580,590.5C 1588.13,600.732 1592.63,612.399 1593.5,625.5 Z"/></g>
<g><path style="opacity:1" fill="#fffefe" d="M 1790.5,560.5 C 1790.5,579.167 1790.5,597.833 1790.5,616.5C 1757.66,616.168 1725,616.502 1692.5,617.5C 1692.5,630.5 1692.5,643.5 1692.5,656.5C 1724.17,656.5 1755.83,656.5 1787.5,656.5C 1787.5,675.167 1787.5,693.833 1787.5,712.5C 1755.66,712.168 1724,712.502 1692.5,713.5C 1692.5,727.833 1692.5,742.167 1692.5,756.5C 1725.17,756.5 1757.83,756.5 1790.5,756.5C 1791.5,774.993 1791.83,793.659 1791.5,812.5C 1732.83,812.5 1674.17,812.5 1615.5,812.5C 1615.5,728.5 1615.5,644.5 1615.5,560.5C 1673.83,560.5 1732.17,560.5 1790.5,560.5 Z"/></g>
<g><path style="opacity:1" fill="#fefefe" d="M 882.5,560.5 C 882.5,579.167 882.5,597.833 882.5,616.5C 850.662,616.168 818.996,616.502 787.5,617.5C 787.5,631.833 787.5,646.167 787.5,660.5C 818.167,660.5 848.833,660.5 879.5,660.5C 879.5,679.167 879.5,697.833 879.5,716.5C 848.833,716.5 818.167,716.5 787.5,716.5C 787.5,748.5 787.5,780.5 787.5,812.5C 761.833,812.5 736.167,812.5 710.5,812.5C 710.5,728.5 710.5,644.5 710.5,560.5C 767.833,560.5 825.167,560.5 882.5,560.5 Z"/></g>
<g><path style="opacity:1" fill="#fefefe" d="M 1084.5,560.5 C 1084.5,579.167 1084.5,597.833 1084.5,616.5C 1051.66,616.168 1019,616.502 986.5,617.5C 986.5,630.5 986.5,643.5 986.5,656.5C 1018.17,656.5 1049.83,656.5 1081.5,656.5C 1081.5,675.167 1081.5,693.833 1081.5,712.5C 1049.66,712.168 1018,712.502 986.5,713.5C 986.5,727.833 986.5,742.167 986.5,756.5C 1019.17,756.5 1051.83,756.5 1084.5,756.5C 1084.5,775.167 1084.5,793.833 1084.5,812.5C 1026.17,812.5 967.833,812.5 909.5,812.5C 909.5,728.5 909.5,644.5 909.5,560.5C 967.833,560.5 1026.17,560.5 1084.5,560.5 Z"/></g>
<g><path style="opacity:1" fill="#fefefe" d="M 1353.5,560.5 C 1353.5,644.5 1353.5,728.5 1353.5,812.5C 1332.5,812.5 1311.5,812.5 1290.5,812.5C 1253.78,762.077 1217.28,711.41 1181,660.5C 1180.99,711.498 1181.16,762.498 1181.5,813.5C 1158.17,813.5 1134.83,813.5 1111.5,813.5C 1111.5,729.167 1111.5,644.833 1111.5,560.5C 1132.84,560.167 1154.18,560.5 1175.5,561.5C 1212.14,613.972 1248.97,666.305 1286,718.5C 1285.83,665.826 1285,613.159 1283.5,560.5C 1306.83,560.5 1330.17,560.5 1353.5,560.5 Z"/></g>
<g><path style="opacity:1" fill="#f6b0b1" d="M 1353.5,560.5 C 1354.5,644.665 1354.83,728.998 1354.5,813.5C 1332.99,813.831 1311.66,813.497 1290.5,812.5C 1311.5,812.5 1332.5,812.5 1353.5,812.5C 1353.5,728.5 1353.5,644.5 1353.5,560.5 Z"/></g>
<g><path style="opacity:1" fill="#0f2538" d="M 268.5,612.5 C 302.907,610.362 327.574,624.695 342.5,655.5C 365.824,656.5 389.157,656.833 412.5,656.5C 407.696,676.776 407.363,697.109 411.5,717.5C 388.5,718.167 365.5,718.833 342.5,719.5C 324.06,754.051 295.727,766.885 257.5,758C 232.704,747.863 217.204,729.696 211,703.5C 205.139,673.083 213.639,647.583 236.5,627C 246.155,619.735 256.822,614.902 268.5,612.5 Z"/></g>
<g><path style="opacity:1" fill="#e82d2e" d="M 535.5,612.5 C 578.533,610.379 605.7,630.046 617,671.5C 622.557,705.541 611.39,732.374 583.5,752C 547.232,769.265 516.065,762.765 490,732.5C 471.255,702.632 470.922,672.632 489,642.5C 500.768,626.543 516.268,616.543 535.5,612.5 Z"/></g>
<g><path style="opacity:1" fill="#f8c0c0" d="M 882.5,560.5 C 883.497,579.326 883.83,598.326 883.5,617.5C 851.833,617.5 820.167,617.5 788.5,617.5C 788.167,617.5 787.833,617.5 787.5,617.5C 818.996,616.502 850.662,616.168 882.5,616.5C 882.5,597.833 882.5,579.167 882.5,560.5 Z"/></g>
<g><path style="opacity:1" fill="#f8c1c1" d="M 1084.5,560.5 C 1085.5,579.326 1085.83,598.326 1085.5,617.5C 1052.5,617.5 1019.5,617.5 986.5,617.5C 1019,616.502 1051.66,616.168 1084.5,616.5C 1084.5,597.833 1084.5,579.167 1084.5,560.5 Z"/></g>
<g><path style="opacity:1" fill="#f4999a" d="M 1790.5,560.5 C 1791.5,579.326 1791.83,598.326 1791.5,617.5C 1758.83,617.5 1726.17,617.5 1693.5,617.5C 1693.17,617.5 1692.83,617.5 1692.5,617.5C 1725,616.502 1757.66,616.168 1790.5,616.5C 1790.5,597.833 1790.5,579.167 1790.5,560.5 Z"/></g>
<g><path style="opacity:1" fill="#f5a9a9" d="M 1593.5,625.5 C 1594.48,628.287 1594.81,631.287 1594.5,634.5C 1567.66,634.831 1540.99,634.498 1514.5,633.5C 1540.83,633.5 1567.17,633.5 1593.5,633.5C 1593.5,630.833 1593.5,628.167 1593.5,625.5 Z"/></g>
<g><path style="opacity:1" fill="#ec5859" d="M 1692.5,617.5 C 1692.83,617.5 1693.17,617.5 1693.5,617.5C 1693.5,630.167 1693.5,642.833 1693.5,655.5C 1725.34,655.168 1757,655.502 1788.5,656.5C 1788.17,656.5 1787.83,656.5 1787.5,656.5C 1755.83,656.5 1724.17,656.5 1692.5,656.5C 1692.5,643.5 1692.5,630.5 1692.5,617.5 Z"/></g>
<g><path style="opacity:1" fill="#ee6466" d="M 787.5,617.5 C 787.833,617.5 788.167,617.5 788.5,617.5C 788.5,631.5 788.5,645.5 788.5,659.5C 819.005,659.169 849.338,659.502 879.5,660.5C 848.833,660.5 818.167,660.5 787.5,660.5C 787.5,646.167 787.5,631.833 787.5,617.5 Z"/></g>
<g><path style="opacity:1" fill="#f7b1b2" d="M 1081.5,656.5 C 1082.5,675.326 1082.83,694.326 1082.5,713.5C 1050.5,713.5 1018.5,713.5 986.5,713.5C 1018,712.502 1049.66,712.168 1081.5,712.5C 1081.5,693.833 1081.5,675.167 1081.5,656.5 Z"/></g>
<g><path style="opacity:1" fill="#f28a8b" d="M 1787.5,656.5 C 1787.83,656.5 1788.17,656.5 1788.5,656.5C 1788.5,675.5 1788.5,694.5 1788.5,713.5C 1756.83,713.5 1725.17,713.5 1693.5,713.5C 1693.17,713.5 1692.83,713.5 1692.5,713.5C 1724,712.502 1755.66,712.168 1787.5,712.5C 1787.5,693.833 1787.5,675.167 1787.5,656.5 Z"/></g>
<g><path style="opacity:1" fill="#f17b7a" d="M 879.5,716.5 C 849.338,717.498 819.005,717.831 788.5,717.5C 788.5,749.5 788.5,781.5 788.5,813.5C 762.328,813.831 736.328,813.498 710.5,812.5C 736.167,812.5 761.833,812.5 787.5,812.5C 787.5,780.5 787.5,748.5 787.5,716.5C 818.167,716.5 848.833,716.5 879.5,716.5 Z"/></g>
<g><path style="opacity:1" fill="#ed5b5c" d="M 1692.5,713.5 C 1692.83,713.5 1693.17,713.5 1693.5,713.5C 1693.5,727.5 1693.5,741.5 1693.5,755.5C 1726,755.168 1758.34,755.502 1790.5,756.5C 1757.83,756.5 1725.17,756.5 1692.5,756.5C 1692.5,742.167 1692.5,727.833 1692.5,713.5 Z"/></g>
<g><path style="opacity:1" fill="#f6afb0" d="M 1084.5,756.5 C 1085.5,775.326 1085.83,794.326 1085.5,813.5C 1026.66,813.832 967.998,813.499 909.5,812.5C 967.833,812.5 1026.17,812.5 1084.5,812.5C 1084.5,793.833 1084.5,775.167 1084.5,756.5 Z"/></g>
<g><path style="opacity:1" fill="#fefefe" d="M 1769.5,826.5 C 1769.5,826.833 1769.5,827.167 1769.5,827.5C 1766.83,827.5 1764.17,827.5 1761.5,827.5C 1761.5,834.167 1761.5,840.833 1761.5,847.5C 1761.17,847.5 1760.83,847.5 1760.5,847.5C 1760.5,840.833 1760.5,834.167 1760.5,827.5C 1758.14,827.663 1755.81,827.497 1753.5,827C 1758.82,826.501 1764.16,826.334 1769.5,826.5 Z"/></g>
<g><path style="opacity:1" fill="#ed5b5c" d="M 1769.5,826.5 C 1764.16,826.334 1758.82,826.501 1753.5,827C 1755.81,827.497 1758.14,827.663 1760.5,827.5C 1760.5,834.167 1760.5,840.833 1760.5,847.5C 1759.51,841.355 1759.18,835.022 1759.5,828.5C 1757.17,828.5 1754.83,828.5 1752.5,828.5C 1752.5,827.5 1752.5,826.5 1752.5,825.5C 1758.36,825.178 1764.02,825.511 1769.5,826.5 Z"/></g>
<g><path style="opacity:1" fill="#f39696" d="M 1769.5,827.5 C 1767.39,828.468 1765.06,828.802 1762.5,828.5C 1762.82,835.022 1762.49,841.355 1761.5,847.5C 1761.5,840.833 1761.5,834.167 1761.5,827.5C 1764.17,827.5 1766.83,827.5 1769.5,827.5 Z"/></g>
<g><path style="opacity:1" fill="#fcd7d7" d="M 1770.5,826.5 C 1771.68,826.281 1772.68,826.614 1773.5,827.5C 1775.91,833.243 1778.41,838.909 1781,844.5C 1783.33,838.833 1785.67,833.167 1788,827.5C 1789.01,826.663 1790.18,826.33 1791.5,826.5C 1791.83,833.532 1791.5,840.532 1790.5,847.5C 1789.67,841.862 1789.17,836.196 1789,830.5C 1786.66,836.511 1783.83,842.178 1780.5,847.5C 1777.71,841.968 1775.21,836.301 1773,830.5C 1772.83,836.196 1772.33,841.862 1771.5,847.5C 1770.5,840.532 1770.17,833.532 1770.5,826.5 Z"/></g>
</svg>
